<svg id="Layer_1" data-name="Layer 1" xmlns="http://www.w3.org/2000/svg" width="550" height="460" viewBox="0 0 550 460"><defs><style>.cls-1{fill:#ffcc2a;}.cls-2{fill:none;}.cls-2,.cls-3{stroke:#ffcc2a;stroke-miterlimit:10;stroke-width:8px;}.cls-3{fill:#fff;}.cls-4{isolation:isolate;}.cls-5{fill:#f74a5a;}</style></defs><path class="cls-1" d="M201.52,371.91c20.58,5.58,27.69,19.72,23.47,35.29-1.56,5.73-4.24,11.24-9.12,15.29-7.72,6.48-16.72,6.56-27.62,3.61l-16.94-4.59,14.58-53.83ZM193,413.43c8.54,2.05,11.92-5.61,13.34-10.85,1.35-5,2.45-14.24-5.93-16.51Z"/><path class="cls-1" d="M254.83,437.24c-14.94-.31-22.17-9.58-21.94-20.69s8.06-20.32,22.89-20c15.46.32,22.69,9.67,22.45,21.21S269.88,437.56,254.83,437.24Zm.83-29.75c-4.39-.09-5.16,6.83-5.21,9.34s.43,9.37,4.92,9.47,5.26-6.75,5.32-9.26S260.15,407.58,255.66,407.49Z"/><path class="cls-1" d="M317.49,429.92l-4.43-20.17c-.35-1.64-.92-4.68-3.77-4.05-3.47.76-3,4.42-2.54,6.46L311,431.35l-17.66,3.88-8.37-38.14,17.66-3.87c.43,2.47.85,4.86,1.19,7.35,1.38-4.92,4.34-9.43,10.78-10.84,9.18-2,13.61,4,15,10.32l5.7,26Z"/><path class="cls-1" d="M390.58,402.44c1.68,3.46,2.63,7.08,1.4,11.22-1.79,5.89-7.6,10.67-13.7,13.64-11.09,5.4-19.89,5.23-25.92-3.09l16.63-8.1c.77,1.58,2.71,2.22,4.77,1.21,3.57-1.74,2.5-4.66,1.44-6.84l-2.64-5.41a15.52,15.52,0,0,1-8,9.57c-11.09,5.4-19.61-4.22-23-11.21s-5.7-19.82,5.1-25.08c4.51-2.19,8.76-1.1,12.47.53l-2.52-4.44,16.44-8Zm-32.1-16.74c-3.66,1.79-1.25,7.22-.26,9.24s4,7.53,7.58,5.8.9-7.23-.05-9.18S362,384,358.48,385.7Z"/><path class="cls-1" d="M281.5,73a151.49,151.49,0,1,1-107.13,44.37A150.54,150.54,0,0,1,281.5,73m0-8A159.5,159.5,0,1,0,441,224.5,159.5,159.5,0,0,0,281.5,65Z"/><path class="cls-1" d="M193.15,85.49a32.32,32.32,0,0,1-11.63,5.2,17.32,17.32,0,0,1-9.3-.45,13,13,0,0,1-6.2-4.56,1.49,1.49,0,0,1,.41-2.1L176,77.23a3.11,3.11,0,0,1,1.5-.61,6.7,6.7,0,0,1,1.51.07,9.82,9.82,0,0,0,2.08.38,6.41,6.41,0,0,0,2.46-.34,11.17,11.17,0,0,0,2.85-1.43,11.57,11.57,0,0,0,3.75-3.58,2.74,2.74,0,0,0,.12-3.07,2.49,2.49,0,0,0-1.93-1.13,9.27,9.27,0,0,0-3.52.62q-2.28.73-6,2.34a38.61,38.61,0,0,1-9.5,3,14.38,14.38,0,0,1-7.88-.71,13.46,13.46,0,0,1-6.06-5.26A13.61,13.61,0,0,1,153,59.16a17.17,17.17,0,0,1,3-8.75,27.85,27.85,0,0,1,8-7.77,28.33,28.33,0,0,1,8.4-4,22,22,0,0,1,7.58-.77,16.82,16.82,0,0,1,6.09,1.6A10.44,10.44,0,0,1,190,42.69a1.52,1.52,0,0,1,.23,1.19,1.4,1.4,0,0,1-.61,1l-10,6.67a3.36,3.36,0,0,1-1.38.58,3,3,0,0,1-1.45-.16,3.62,3.62,0,0,0-2.5-.49,7.45,7.45,0,0,0-3.49,1.38,6.91,6.91,0,0,0-2.66,2.76,2.71,2.71,0,0,0,.26,2.73,2.58,2.58,0,0,0,1.7,1.12,7,7,0,0,0,3.11-.39c1.35-.41,3.15-1.08,5.42-2a43.22,43.22,0,0,1,10.79-3.74,13.95,13.95,0,0,1,16.07,14.81,18.81,18.81,0,0,1-3.6,9.2A32.71,32.71,0,0,1,193.15,85.49Z"/><path class="cls-1" d="M215.8,71a1.85,1.85,0,0,1-2.35-1.21L203.17,37.7a1.83,1.83,0,0,1,1.21-2.36l9.94-3.18a1.82,1.82,0,0,1,1.43.1,1.85,1.85,0,0,1,.92,1.11l.79,2.47a15.58,15.58,0,0,1,3.61-5,16,16,0,0,1,6.26-3.59,14,14,0,0,1,7.27-.44,13.28,13.28,0,0,1,6.52,3.58,19.13,19.13,0,0,1,4.62,8.05l6.1,19.06a1.7,1.7,0,0,1-.14,1.44,1.91,1.91,0,0,1-1.14.94l-10.83,3.47a1.82,1.82,0,0,1-1.43-.11,1.77,1.77,0,0,1-.92-1.1l-6-18.58A5.93,5.93,0,0,0,228.94,40a4.71,4.71,0,0,0-3.94-.25,4.94,4.94,0,0,0-3.13,2.52,5.75,5.75,0,0,0-.05,4.32l6,18.58a1.84,1.84,0,0,1-.11,1.44,1.81,1.81,0,0,1-1.1.92Z"/><path class="cls-1" d="M274.8,58.76q-9,.39-14.47-4t-6-14c0-.19,0-.45,0-.76s0-.54,0-.68a21.31,21.31,0,0,1,2.19-10.22,15.79,15.79,0,0,1,6.49-6.59,22.92,22.92,0,0,1,10.16-2.6,20.91,20.91,0,0,1,11.08,2.16A16.63,16.63,0,0,1,291,28.77a21.53,21.53,0,0,1,2.58,9.66l.09,2a1.82,1.82,0,0,1-.52,1.32,1.87,1.87,0,0,1-1.34.63l-22.16,1c0,.19,0,.34,0,.43a9.22,9.22,0,0,0,.6,3,4.32,4.32,0,0,0,1.56,2,4,4,0,0,0,2.48.65,3.79,3.79,0,0,0,1.57-.36,3.62,3.62,0,0,0,1.08-.8c.3-.32.56-.64.79-.93a4,4,0,0,1,1.05-.88,3.48,3.48,0,0,1,1.28-.23l11.3-.49a1.6,1.6,0,0,1,1.13.38,1.23,1.23,0,0,1,.44,1.07,6.93,6.93,0,0,1-1.09,3.18,14,14,0,0,1-3.26,3.71,19.64,19.64,0,0,1-5.67,3.12A26.07,26.07,0,0,1,274.8,58.76Zm-5.55-23.47,8.92-.38v-.15a9.54,9.54,0,0,0-.65-3.28,4.14,4.14,0,0,0-1.6-2,4.22,4.22,0,0,0-2.47-.57,4.28,4.28,0,0,0-2.42.78,4.08,4.08,0,0,0-1.42,2.12,9.4,9.4,0,0,0-.36,3.33Z"/><path class="cls-1" d="M308.46,60.82a16.22,16.22,0,0,1-6.61-3,12.32,12.32,0,0,1-3.93-5,9.74,9.74,0,0,1-.52-6,9.48,9.48,0,0,1,5.84-7.1,26.84,26.84,0,0,1,11.88-1.67l8.37.47.1-.49a6.46,6.46,0,0,0,0-3.42c-.29-.82-1.14-1.38-2.54-1.69a4.7,4.7,0,0,0-2.52.05,6.09,6.09,0,0,0-2,1.26,2.42,2.42,0,0,1-2,.38l-9.93-2.14a1.63,1.63,0,0,1-1.1-.68,1.31,1.31,0,0,1-.11-1.2,7.05,7.05,0,0,1,1.7-2.77,12.61,12.61,0,0,1,3.78-2.72,17.81,17.81,0,0,1,6-1.58,26.12,26.12,0,0,1,8.19.62,28.06,28.06,0,0,1,7.87,2.8,15.62,15.62,0,0,1,4.92,4.15,12,12,0,0,1,2.25,5.31,17,17,0,0,1-.24,6.24l-4.49,20.84a1.8,1.8,0,0,1-.81,1.19,1.78,1.78,0,0,1-1.41.24l-10.28-2.21a1.85,1.85,0,0,1-1.15-.8,1.75,1.75,0,0,1-.29-1.42l.49-2.25a9.33,9.33,0,0,1-3,1.94,13.54,13.54,0,0,1-3.88.93A15.42,15.42,0,0,1,308.46,60.82Zm6.07-8.34a6.33,6.33,0,0,0,3.22-.08,5.4,5.4,0,0,0,2.57-1.84,8.89,8.89,0,0,0,1.61-3.71l.1-.49-5.28-.11a8,8,0,0,0-4,.66,2.83,2.83,0,0,0-1.5,1.85,2.43,2.43,0,0,0,.17,1.58,3.59,3.59,0,0,0,1.16,1.32A5.08,5.08,0,0,0,314.53,52.48Z"/><path class="cls-1" d="M338.62,67.62a1.79,1.79,0,0,1-.94-1.08,1.81,1.81,0,0,1,.11-1.44l21.32-42.31a1.77,1.77,0,0,1,1.08-.94,1.83,1.83,0,0,1,1.43.11l9.32,4.7a1.83,1.83,0,0,1,.83,2.51L361.08,50.39l12.16-5.89a6.18,6.18,0,0,1,1.07-.34,2.14,2.14,0,0,1,1.48.26l10.8,5.44a1.59,1.59,0,0,1,.73,2.22,1.94,1.94,0,0,1-.39.53.84.84,0,0,1-.51.31l-16.54,7.39,3.8,21.9a2.1,2.1,0,0,1-.17,1.13,1.59,1.59,0,0,1-2.22.73L360.1,78.44a2.13,2.13,0,0,1-1.17-1.12c-.14-.42-.28-.77-.4-1L356,60.49l-5.54,11a1.82,1.82,0,0,1-1.08.94,1.79,1.79,0,0,1-1.43-.12Z"/><path class="cls-1" d="M375.07,88.13a1.8,1.8,0,0,1-.72-1.25,1.76,1.76,0,0,1,.39-1.38l20.63-26.64a1.76,1.76,0,0,1,1.24-.72,1.79,1.79,0,0,1,1.38.38l8.43,6.53a2,2,0,0,1,.75,1.26,1.79,1.79,0,0,1-.36,1.41L386.18,94.36a1.75,1.75,0,0,1-1.27.7,1.92,1.92,0,0,1-1.41-.41ZM401,54.91a1.78,1.78,0,0,1-.72-1.24,1.75,1.75,0,0,1,.39-1.38l4.63-6a1.89,1.89,0,0,1,1.26-.75,1.72,1.72,0,0,1,1.41.36l8.19,6.34a1.89,1.89,0,0,1,.73,1.3,1.86,1.86,0,0,1-.38,1.43l-4.63,6a1.75,1.75,0,0,1-1.27.7,2,2,0,0,1-1.41-.41Z"/><line class="cls-2" x1="122" y1="224.5" x2="441" y2="224.5"/><line class="cls-2" x1="144" y1="301" x2="417" y2="301"/><line class="cls-2" x1="144" y1="149" x2="419" y2="149"/><line class="cls-3" x1="281.5" y1="65" x2="281.5" y2="384"/><path class="cls-1" d="M280.57,73c24,0,46.84,15.26,64.31,43,18.19,28.87,28.21,67.41,28.21,108.52s-10,79.65-28.21,108.52c-17.47,27.72-40.31,43-64.31,43s-46.84-15.26-64.31-43c-18.19-28.87-28.21-67.41-28.21-108.52s10-79.65,28.21-108.52c17.47-27.72,40.31-43,64.31-43m0-8c-55.51,0-100.52,71.41-100.52,159.5S225.06,384,280.57,384s100.52-71.41,100.52-159.5S336.09,65,280.57,65Z"/><g id="S" class="cls-4"><g class="cls-4"><path class="cls-5" d="M197.5,256.26q-15.09-6.21-22.74-16.31a38.21,38.21,0,0,1-8.1-22.07,4.46,4.46,0,0,1,1.45-3.22,4.68,4.68,0,0,1,3.43-1.44h28a8.29,8.29,0,0,1,4.33,1,15.26,15.26,0,0,1,3.44,3,22.93,22.93,0,0,0,9.32,9.54q6.42,3.78,17.08,3.77,12.65,0,19.3-4t6.65-10.87a10.27,10.27,0,0,0-3.44-8q-3.44-3.1-10.76-5.55a222.37,222.37,0,0,0-21.74-5.55q-26.61-5.54-39.81-16.3t-13.2-30.72a40.8,40.8,0,0,1,7.54-24.18q7.53-10.65,21.52-16.64t32.6-6q19.31,0,33.5,6.66t21.63,16.74q7.43,10.09,7.87,19.86a4.56,4.56,0,0,1-4.65,4.66H261.38a9.18,9.18,0,0,1-4.32-.89,8.44,8.44,0,0,1-3-2.89q-1.32-5.1-7.21-8.65t-14.53-3.55q-10,0-15.3,3.55t-5.32,10.43a10.72,10.72,0,0,0,3,7.76q3,3.12,9.76,5.66a139.25,139.25,0,0,0,19.41,5.21q20.63,3.78,32.94,9.43t18.08,14.64q5.76,9,5.77,22.52a40.87,40.87,0,0,1-8.54,25.84q-8.55,11-23.74,16.86t-34.71,5.88Q212.57,262.47,197.5,256.26Z"/></g></g><g id="D" class="cls-4"><g class="cls-4"><path class="cls-5" d="M263.49,351.75a5.31,5.31,0,0,1-1.66-3.88V203.68a5.22,5.22,0,0,1,1.66-4,5.52,5.52,0,0,1,3.88-1.55h57.68q32.61,0,50.58,15.53t18.85,45q.22,6.44.22,17.08t-.22,16.86q-1.11,30.83-18.3,45.8t-50,15H267.37A5.32,5.32,0,0,1,263.49,351.75Zm61.56-30.28q14.64,0,21.52-7t7.32-22.3q.44-6.44.44-16.64t-.44-16.41q-.45-14.87-7.88-22t-22.07-7.1H301.76v91.39Z"/></g></g><g id="S-2" class="cls-4"><g class="cls-4"><path class="cls-1" d="M206.37,244.72q-15.09-6.21-22.74-16.3a38.16,38.16,0,0,1-8.09-22.08,4.45,4.45,0,0,1,1.44-3.21,4.7,4.7,0,0,1,3.44-1.44h28a8.37,8.37,0,0,1,4.32,1,15.37,15.37,0,0,1,3.44,3,23,23,0,0,0,9.32,9.54q6.44,3.76,17.08,3.77,12.65,0,19.3-4t6.65-10.87a10.26,10.26,0,0,0-3.44-8q-3.44-3.1-10.75-5.55a223.71,223.71,0,0,0-21.74-5.54q-26.62-5.55-39.82-16.31T179.53,138a40.8,40.8,0,0,1,7.54-24.18q7.55-10.65,21.52-16.64t32.61-6q19.29,0,33.49,6.66t21.63,16.75q7.44,10.09,7.88,19.85a4.55,4.55,0,0,1-4.66,4.66H270.26a9.08,9.08,0,0,1-4.33-.89,8.39,8.39,0,0,1-3-2.88q-1.33-5.1-7.21-8.65t-14.53-3.55q-10,0-15.31,3.55t-5.32,10.42a10.77,10.77,0,0,0,3,7.77q3,3.1,9.76,5.65a139,139,0,0,0,19.41,5.22q20.64,3.76,32.94,9.43t18.08,14.64q5.78,9,5.77,22.51A40.87,40.87,0,0,1,301,228.19q-8.53,11-23.73,16.86t-34.72,5.88Q221.46,250.93,206.37,244.72Z"/></g></g><g id="D-2" class="cls-4"><g class="cls-4"><path class="cls-1" d="M272.37,340.22a5.32,5.32,0,0,1-1.67-3.88V192.15a5.24,5.24,0,0,1,1.67-4,5.51,5.51,0,0,1,3.88-1.55h57.67q32.61,0,50.58,15.53t18.86,45q.21,6.43.22,17.08t-.22,16.86q-1.12,30.84-18.31,45.81t-50,15H276.25A5.29,5.29,0,0,1,272.37,340.22Zm61.55-30.28q14.64,0,21.52-7t7.32-22.29q.44-6.44.44-16.64t-.44-16.42q-.45-14.85-7.88-22t-22.07-7.09H310.63v91.39Z"/></g></g><path class="cls-5" d="M45.43,218a14.3,14.3,0,0,1-.07-1.73c0-9.43,6.41-16.56,16-16.56,9.22,0,15.41,6.62,15.41,15.7S70.56,232.05,64.15,238c4-.29,8-.29,12-.36v11h-33l13.1-17.49c3.39-4.54,7.85-10.52,7.85-16.42,0-1.87-.79-4.32-3-4.32-2.81,0-3.1,3.89-3.1,5.9A14.3,14.3,0,0,0,58,218Z"/><path class="cls-5" d="M99,249.48c-13.68,0-17.42-14.12-17.42-25.28,0-10.8,4-24.48,17.13-24.48s16.78,14,16.78,24.7S112.11,249.48,99,249.48Zm3.67-26.5c0-2.88-.14-12-4.32-12-4,0-4,9.15-4,11.88a59.8,59.8,0,0,0,.29,6.27c.21,2.45.36,9.14,3.89,9.14,4.1,0,4.17-9.5,4.17-12.24Z"/><path class="cls-5" d="M451.87,248.61V211.89h-5.18V200.58h18.14v48Z"/><path class="cls-5" d="M490.75,214.27a42,42,0,0,1-2.37,3.74,9.48,9.48,0,0,1,4.61-1.3c7.84,0,11.8,8.5,11.8,15.34,0,10-6.48,17.43-16.7,17.43s-15.7-7.85-15.7-17.36c0-10.08,7.56-22.68,12.17-31.54h13.9Zm-2.08,11.8c-3.17,0-3.61,4-3.61,6.41s.36,6.63,3.61,6.63,3.67-4.4,3.67-6.84S491.76,226.07,488.67,226.07Z"/></svg>